<?xml version="1.0" standalone="no"?>
<!DOCTYPE svg PUBLIC "-//W3C//DTD SVG 20010904//EN"
 "http://www.w3.org/TR/2001/REC-SVG-20010904/DTD/svg10.dtd">
<svg version="1.0" xmlns="http://www.w3.org/2000/svg"
 width="512.000000pt" height="512.000000pt" viewBox="0 0 512.000000 512.000000"
 preserveAspectRatio="xMidYMid meet">

<g transform="translate(0.000000,512.000000) scale(0.100000,-0.100000)"
fill="#000000" stroke="none">
<path d="M1042 4955 c-230 -52 -344 -227 -328 -503 11 -188 73 -426 173 -659
l45 -106 -36 -78 c-186 -406 -185 -847 1 -1200 57 -109 150 -233 242 -323 l70
-69 -73 -71 c-109 -105 -209 -277 -231 -398 -9 -45 -16 -46 -107 -18 -86 26
-167 87 -223 164 -93 131 -156 169 -280 170 -64 0 -89 -4 -122 -22 -135 -71
-202 -220 -159 -353 25 -76 99 -183 191 -275 176 -177 371 -267 635 -296 58
-6 108 -16 112 -22 4 -6 8 -96 8 -201 0 -212 9 -286 42 -353 28 -58 94 -123
155 -154 70 -33 188 -37 266 -8 65 25 143 94 175 156 24 46 42 137 42 207 l0
50 83 -6 c45 -4 121 -7 168 -7 l85 0 10 -93 c12 -110 37 -169 100 -231 63 -64
123 -90 216 -94 129 -7 229 43 297 144 38 59 51 104 59 214 7 82 8 85 33 88
26 3 26 3 32 -90 10 -145 48 -228 137 -293 64 -47 119 -65 201 -65 93 0 166
28 228 89 100 98 112 151 111 519 -1 252 0 276 18 306 52 88 110 277 121 396
l6 65 60 13 c102 23 306 81 395 114 164 59 405 184 468 241 45 42 16 127 -44
127 -14 0 -64 -23 -109 -50 -190 -115 -426 -209 -661 -265 -437 -103 -974
-109 -1414 -14 -666 144 -1121 476 -1276 932 -80 235 -73 527 17 784 76 214
190 396 364 580 545 578 1437 798 2240 551 337 -103 626 -276 866 -517 287
-289 440 -598 468 -950 24 -293 -56 -554 -244 -791 -72 -92 -80 -123 -42 -158
41 -38 79 -30 132 31 150 169 264 412 296 632 15 103 12 327 -5 425 -22 125
-61 252 -112 366 l-45 102 50 118 c141 337 197 635 156 828 -71 335 -388 419
-930 246 -118 -38 -175 -61 -353 -143 -130 -59 -135 -60 -175 -49 -332 94
-601 126 -894 104 -212 -15 -322 -35 -549 -99 l-62 -17 -133 61 c-238 109
-367 155 -554 198 -139 32 -322 41 -413 20z m375 -164 c161 -36 523 -168 523
-191 0 -4 -19 -15 -42 -25 -58 -23 -226 -117 -305 -172 l-66 -45 -81 55 c-151
103 -303 175 -465 222 -46 14 -86 27 -89 30 -3 2 7 22 21 44 31 46 96 88 158
101 64 14 243 4 346 -19z m3335 18 c76 -16 124 -44 158 -91 17 -22 30 -45 30
-49 0 -5 -26 -15 -57 -24 -169 -46 -348 -129 -498 -231 l-82 -56 -66 45 c-81
56 -248 150 -304 172 -24 10 -43 20 -43 24 0 4 39 25 88 46 319 138 606 199
774 164z m-3812 -318 c161 -46 268 -99 457 -226 1 0 -55 -59 -125 -130 -71
-72 -154 -166 -187 -209 l-59 -79 -19 44 c-34 80 -97 277 -117 366 -23 103
-37 253 -24 253 5 0 38 -8 74 -19z m4030 -25 c0 -109 -55 -334 -127 -523 l-37
-96 -20 26 c-12 14 -47 58 -78 98 -31 41 -106 123 -167 183 l-110 110 52 35
c119 81 267 151 402 191 85 26 85 26 85 -24z m-3527 -2618 c489 -295 1177
-420 1890 -342 l57 7 0 -30 c0 -36 -33 -168 -61 -243 -92 -249 -283 -404 -572
-465 -105 -23 -97 -31 -97 98 0 196 -24 273 -111 358 -68 67 -139 92 -244 87
-96 -4 -154 -29 -219 -94 -83 -82 -105 -163 -106 -376 l0 -118 -87 0 c-49 0
-125 3 -170 7 l-83 6 0 122 c0 205 -23 280 -111 366 -51 50 -135 89 -189 89
-40 0 -70 -32 -70 -73 0 -39 23 -64 71 -77 56 -16 97 -47 121 -92 22 -42 23
-50 23 -338 0 -287 -1 -296 -22 -337 -66 -123 -250 -125 -321 -3 l-27 45 0
328 c-1 359 0 355 -61 361 l-29 3 2 144 c3 217 51 370 155 496 43 51 135 133
151 133 4 0 54 -28 110 -62z m-1067 -152 c14 -10 40 -38 57 -64 100 -146 243
-242 398 -267 l36 -5 5 -148 c3 -81 5 -148 4 -148 -6 -8 -161 24 -230 47 -199
66 -379 213 -471 384 -44 83 -20 169 57 209 40 20 106 16 144 -8z m2034 -546
c89 -45 100 -90 100 -410 0 -320 -11 -365 -100 -410 -90 -46 -201 -14 -250 72
l-25 43 0 295 0 295 25 43 c49 86 160 118 250 72z m838 -507 c-3 -183 -5 -201
-25 -240 -66 -124 -253 -125 -322 -2 -20 35 -25 61 -29 144 l-4 100 68 24 c91
31 187 82 249 130 28 22 54 40 58 40 5 1 7 -88 5 -196z"/>
<path d="M2081 3598 c-42 -15 -50 -37 -51 -134 0 -82 2 -93 23 -112 33 -31 80
-29 106 4 30 38 31 179 1 216 -23 30 -47 38 -79 26z"/>
<path d="M3704 3599 c-41 -15 -54 -48 -54 -135 0 -67 4 -86 21 -108 27 -34 77
-36 107 -3 19 20 22 35 22 111 0 48 -4 96 -10 106 -13 23 -59 39 -86 29z"/>
<path d="M2777 3524 c-130 -31 -205 -130 -177 -233 14 -52 62 -92 160 -135
l75 -33 0 -59 0 -59 -45 -22 c-71 -37 -141 -26 -210 32 -53 44 -99 47 -129 9
-30 -38 -26 -59 18 -107 79 -85 206 -122 321 -93 35 9 77 25 94 35 29 19 29
19 73 -4 134 -72 304 -46 404 62 44 48 48 69 18 107 -30 38 -76 35 -129 -9
-71 -59 -156 -68 -229 -24 -31 18 -32 22 -29 76 l3 56 80 34 c94 41 141 82
156 137 20 72 -11 142 -85 192 -73 50 -247 68 -369 38z m237 -144 c21 -5 48
-18 59 -29 l21 -20 -78 -36 c-42 -19 -88 -35 -100 -35 -13 0 -59 16 -101 36
l-78 35 20 21 c11 11 36 24 54 28 47 11 156 11 203 0z"/>
<path d="M1585 3099 c-135 -25 -274 -66 -305 -88 -30 -22 -37 -64 -16 -96 23
-35 50 -39 124 -17 109 33 260 63 360 71 106 9 135 27 135 80 0 56 -25 71
-117 70 -45 -1 -126 -9 -181 -20z"/>
<path d="M3965 3100 c-25 -27 -23 -76 3 -102 16 -17 39 -22 114 -29 99 -8 234
-35 361 -71 l77 -22 28 21 c37 28 39 87 2 114 -57 41 -364 109 -495 109 -59 0
-75 -4 -90 -20z"/>
<path d="M1841 2774 c-158 -88 -374 -256 -385 -299 -9 -34 18 -83 50 -91 33
-8 56 3 129 66 75 64 213 159 283 194 29 15 62 36 72 46 43 43 7 120 -56 120
-16 0 -58 -16 -93 -36z"/>
<path d="M3842 2787 c-27 -29 -28 -71 -2 -97 10 -10 43 -31 72 -46 72 -37 179
-109 283 -194 51 -40 97 -70 110 -70 33 0 64 30 71 68 6 31 3 38 -52 88 -122
114 -373 274 -429 274 -20 0 -40 -9 -53 -23z"/>
</g>
</svg>
