<?xml version="1.0" standalone="no"?>
<!DOCTYPE svg PUBLIC "-//W3C//DTD SVG 20010904//EN"
 "http://www.w3.org/TR/2001/REC-SVG-20010904/DTD/svg10.dtd">
<svg version="1.0" xmlns="http://www.w3.org/2000/svg"
 width="512.000000pt" height="512.000000pt" viewBox="0 0 512.000000 512.000000"
 preserveAspectRatio="xMidYMid meet">

<g transform="translate(0.000000,512.000000) scale(0.100000,-0.100000)"
fill="#000000" stroke="none">
<path d="M480 4800 l0 -160 -56 0 c-31 0 -75 -5 -98 -12 -55 -16 -138 -99
-154 -154 -9 -32 -12 -383 -12 -1498 l0 -1456 160 0 160 0 0 -520 0 -520 240
0 240 0 0 -160 0 -160 240 0 240 0 0 160 0 160 880 0 880 0 0 -160 0 -160 240
0 240 0 0 160 0 160 240 0 240 0 0 760 0 760 400 0 400 0 0 240 0 240 -400 0
-400 0 0 360 0 360 400 0 400 0 0 240 0 240 -400 0 -400 0 0 640 0 640 -1840
0 -1840 0 0 -160z m3520 -2080 l0 -2080 -1680 0 -1680 0 0 2080 0 2080 1680 0
1680 0 0 -2080z m-3520 1560 l0 -200 -80 0 -80 0 0 175 c0 173 0 176 25 200
20 21 34 25 80 25 l55 0 0 -200z m0 -1480 l0 -1120 -80 0 -80 0 0 1120 0 1120
80 0 80 0 0 -1120z m4320 640 l0 -80 -320 0 -320 0 0 80 0 80 320 0 320 0 0
-80z m0 -1200 l0 -80 -320 0 -320 0 0 80 0 80 320 0 320 0 0 -80z m-3520
-1840 l0 -80 -80 0 -80 0 0 80 0 80 80 0 80 0 0 -80z m2240 0 l0 -80 -80 0
-80 0 0 80 0 80 80 0 80 0 0 -80z"/>
<path d="M800 3040 l0 -1440 1520 0 1520 0 0 1440 0 1440 -1520 0 -1520 0 0
-1440z m2880 880 l0 -400 -331 0 c-284 0 -330 2 -326 14 3 8 11 33 17 54 9 34
24 50 99 106 l88 66 107 0 106 0 0 80 0 80 -80 0 -80 0 0 80 0 80 -80 0 -80 0
0 -100 0 -99 -67 -51 c-44 -34 -72 -48 -82 -44 -93 42 -150 54 -238 52 l-91
-2 -69 70 c-111 112 -247 190 -398 230 -105 28 -277 26 -375 -5 -270 -84 -497
-297 -572 -537 l-23 -74 -122 0 -123 0 0 400 0 400 1360 0 1360 0 0 -400z
m-1490 44 c84 -28 202 -98 249 -148 23 -24 23 -26 5 -32 -148 -51 -280 -159
-339 -276 -31 -62 -35 -80 -35 -147 0 -57 5 -87 20 -116 11 -22 20 -41 20 -44
0 -10 -382 9 -462 23 -197 36 -288 105 -288 220 0 135 132 336 290 441 176
117 348 142 540 79z m653 -295 c21 -5 41 -17 43 -24 18 -46 -135 -229 -261
-314 -162 -108 -304 -128 -369 -50 -20 23 -26 42 -26 76 0 167 237 315 515
321 33 1 77 -3 98 -9z m-1614 -363 c61 -148 242 -233 550 -258 l144 -12 -65
-12 c-239 -44 -483 -232 -592 -456 -37 -76 -66 -172 -66 -220 l0 -28 -120 0
-120 0 0 520 0 520 123 0 123 0 23 -54z m2451 -466 l0 -520 -355 0 -355 0 29
53 c16 28 34 71 40 94 10 36 23 50 100 107 l88 66 107 0 106 0 0 80 0 80 -80
0 -80 0 0 80 0 80 -80 0 -80 0 0 -100 0 -99 -67 -51 c-44 -34 -72 -48 -82 -44
-94 42 -150 54 -240 52 l-94 -2 -46 51 c-119 132 -283 223 -461 257 l-65 13
110 7 c142 10 261 30 356 62 88 28 223 114 314 198 l60 55 388 1 387 0 0 -520z
m-1493 5 c83 -26 204 -98 252 -149 23 -24 23 -26 5 -32 -148 -51 -280 -159
-339 -276 -31 -62 -35 -80 -35 -147 0 -57 5 -87 20 -116 11 -22 20 -41 20 -44
0 -10 -382 9 -462 23 -197 36 -288 105 -288 220 0 135 132 336 290 441 174
116 345 141 537 80z m656 -296 c21 -5 41 -17 43 -24 16 -42 -109 -201 -229
-291 -78 -58 -141 -90 -218 -110 -81 -21 -134 -11 -176 31 -28 28 -33 40 -33
80 0 61 22 105 82 167 108 111 385 188 531 147z m-1560 -444 c120 -137 371
-195 796 -182 355 10 510 55 691 198 l49 39 431 0 430 0 0 -200 0 -200 -1360
0 -1360 0 0 200 0 200 138 0 137 0 48 -55z"/>
<path d="M1760 3680 l0 -80 -80 0 -80 0 0 -80 0 -80 80 0 80 0 0 80 0 80 80 0
80 0 0 80 0 80 -80 0 -80 0 0 -80z"/>
<path d="M1760 2560 l0 -80 -80 0 -80 0 0 -80 0 -80 80 0 80 0 0 80 0 80 80 0
80 0 0 80 0 80 -80 0 -80 0 0 -80z"/>
<path d="M1600 1120 l0 -320 720 0 720 0 0 320 0 320 -720 0 -720 0 0 -320z
m1280 0 l0 -160 -560 0 -560 0 0 160 0 160 560 0 560 0 0 -160z"/>
<path d="M3680 1120 l0 -160 -80 0 -80 0 0 -80 0 -80 160 0 160 0 0 240 0 240
-80 0 -80 0 0 -160z"/>
<path d="M3200 880 l0 -80 80 0 80 0 0 80 0 80 -80 0 -80 0 0 -80z"/>
</g>
</svg>
